<?xml version="1.0" encoding="UTF-8" standalone="no"?>
<svg
   xmlns:dc="http://purl.org/dc/elements/1.1/"
   xmlns:cc="http://creativecommons.org/ns#"
   xmlns:rdf="http://www.w3.org/1999/02/22-rdf-syntax-ns#"
   xmlns:svg="http://www.w3.org/2000/svg"
   xmlns="http://www.w3.org/2000/svg"
   xmlns:sodipodi="http://sodipodi.sourceforge.net/DTD/sodipodi-0.dtd"
   xmlns:inkscape="http://www.inkscape.org/namespaces/inkscape"
   width="43.486275mm"
   height="14.459652mm"
   viewBox="0 0 43.486275 14.459652"
   version="1.1"
   id="svg8"
   inkscape:version="1.0.1 (3bc2e813f5, 2020-09-07)"
   sodipodi:docname="biglogo.svg">
  <defs
     id="defs2">
    <rect
       x="51.272202"
       y="103.74001"
       width="13.346917"
       height="20.229143"
       id="rect835" />
    <rect
       x="51.272202"
       y="103.74001"
       width="13.346917"
       height="20.229143"
       id="rect843" />
  </defs>
  <sodipodi:namedview
     id="base"
     pagecolor="#ffffff"
     bordercolor="#666666"
     borderopacity="1.0"
     inkscape:pageopacity="0.0"
     inkscape:pageshadow="2"
     inkscape:zoom="1"
     inkscape:cx="199.58713"
     inkscape:cy="146.79098"
     inkscape:document-units="mm"
     inkscape:current-layer="layer1"
     inkscape:document-rotation="0"
     showgrid="false"
     showborder="false"
     fit-margin-top="0"
     fit-margin-left="0"
     fit-margin-right="0"
     fit-margin-bottom="0"
     inkscape:window-width="1366"
     inkscape:window-height="713"
     inkscape:window-x="0"
     inkscape:window-y="27"
     inkscape:window-maximized="1" />
  <metadata
     id="metadata5">
    <rdf:RDF>
      <cc:Work
         rdf:about="">
        <dc:format>image/svg+xml</dc:format>
        <dc:type
           rdf:resource="http://purl.org/dc/dcmitype/StillImage" />
        <dc:title></dc:title>
      </cc:Work>
    </rdf:RDF>
  </metadata>
  <g
     inkscape:label="Layer 1"
     inkscape:groupmode="layer"
     id="layer1"
     transform="translate(-51.271484,-109.32822)">
    <g
       id="g966">
      <path
         d="m 63.209461,109.32822 -2.218262,2.2352 h -6.705587 v 5.52025 h 8.56825 l -2.235196,2.2352 h -7.078119 l -2.269063,-2.26906 v -5.45252 l 2.269063,-2.26907 z"
         style="font-style:normal;font-variant:normal;font-weight:normal;font-stretch:normal;font-size:16.9333px;line-height:1.25;font-family:BatmanForeverAlternate;-inkscape-font-specification:BatmanForeverAlternate;white-space:pre;fill:#ffffff;fill-opacity:1;stroke:none"
         id="path849" />
      <path
         d="m 55.235019,113.79722 2.218262,2.2352 h 6.705587 v 5.52025 h -8.56825 l 2.235196,2.2352 h 7.078119 l 2.269063,-2.26906 v -5.45252 l -2.269063,-2.26907 z"
         style="font-style:normal;font-variant:normal;font-weight:normal;font-stretch:normal;font-size:16.9333px;line-height:1.25;font-family:BatmanForeverAlternate;-inkscape-font-specification:BatmanForeverAlternate;white-space:pre;fill:#00d400;fill-opacity:1;stroke:none"
         id="path852" />
      <path
         d="m 70.444792,119.51946 c -0.651934,0.46567 -1.100668,0.70273 -1.371601,0.70273 -0.3048,0 -0.4826,-0.23706 -0.4826,-0.64346 0,-0.4064 0.1016,-0.94827 0.262467,-1.3462 0.169333,-0.44874 0.389466,-0.67734 0.635,-0.67734 0.2032,0 0.313267,0.16087 0.3556,0.5334 l 0.491067,-0.28786 c 0.0085,-0.0423 0.0085,-0.0847 0.0085,-0.0931 0,-0.36406 -0.186266,-0.59266 -0.4826,-0.59266 -0.1524,0 -0.245533,0.0339 -0.550333,0.23706 -0.635001,0.39794 -0.770467,0.52494 -0.956734,0.87207 -0.237067,0.4572 -0.414867,1.17687 -0.414867,1.7018 0,0.49107 0.2286,0.77893 0.618067,0.77893 0.4064,0 1.100667,-0.33866 1.871134,-0.9144 z"
         style="font-style:normal;font-variant:normal;font-weight:normal;font-stretch:normal;font-size:8.46667px;line-height:1.25;font-family:'URW Chancery L';-inkscape-font-specification:'URW Chancery L';fill:#ffffff;fill-opacity:1;stroke:none;stroke-width:0.264583"
         id="path855" />
      <path
         d="m 73.118936,117.11493 c -0.338667,0 -0.880533,0.24553 -1.380067,0.61806 -0.541867,0.4064 -0.922867,1.28694 -0.922867,2.12514 0,0.51646 0.287867,0.84666 0.7366,0.84666 0.237067,0 0.474134,-0.0847 0.863601,-0.28786 0.423333,-0.23707 0.702733,-0.44874 0.855133,-0.65194 0.338667,-0.4572 0.609601,-1.28693 0.609601,-1.87113 0,-0.4572 -0.313267,-0.77893 -0.762001,-0.77893 z m -0.440267,0.39793 c 0.338667,0 0.550334,0.3302 0.550334,0.8382 0,0.3556 -0.118533,0.79587 -0.3302,1.21073 -0.237067,0.4826 -0.541867,0.74507 -0.8636,0.74507 -0.347134,0 -0.567267,-0.31327 -0.567267,-0.79587 0,-0.98213 0.618067,-1.99813 1.210733,-1.99813 z"
         style="font-style:normal;font-variant:normal;font-weight:normal;font-stretch:normal;font-size:8.46667px;line-height:1.25;font-family:'URW Chancery L';-inkscape-font-specification:'URW Chancery L';fill:#ffffff;fill-opacity:1;stroke:none;stroke-width:0.264583"
         id="path857" />
      <path
         d="m 77.677312,119.48559 c -0.110067,0.0677 -0.194733,0.127 -0.237067,0.1524 -0.465667,0.32174 -0.702733,0.4572 -0.778933,0.4572 -0.06773,0 -0.118534,-0.0931 -0.118534,-0.22013 0,-0.2794 0.711201,-3.34434 0.889001,-3.86927 0.186266,-0.508 0.372533,-0.70273 0.677333,-0.70273 0.110067,0 0.194734,0.0169 0.389467,0.0677 l 0.296333,-0.47413 c -0.127,-0.0254 -0.194733,-0.0339 -0.270933,-0.0339 -0.2032,0 -0.313267,0.0339 -0.508,0.14393 -0.211667,0.11854 -0.499534,0.33867 -0.7366,0.5588 -0.414867,0.39794 -0.440267,0.4572 -0.660401,1.32927 -0.0085,0.0339 -0.03387,0.14394 -0.06773,0.27094 -0.1524,-0.0339 -0.2794,-0.0508 -0.347134,-0.0508 -0.262466,0 -0.9906,0.4572 -1.329267,0.82973 -0.287867,0.3302 -0.668867,1.524 -0.668867,2.1082 0,0.32173 0.169334,0.65193 0.321734,0.65193 0.160867,0 0.5334,-0.2286 1.4224,-0.87206 -0.04233,0.21166 -0.06773,0.4572 -0.06773,0.6096 0,0.16933 0.06773,0.26246 0.186267,0.26246 0.135466,0 0.872067,-0.44873 1.5748,-0.95673 z m -1.659467,0.0339 c -0.719667,0.508 -0.905934,0.61807 -1.024467,0.61807 -0.118534,0 -0.1778,-0.127 -0.1778,-0.37254 0,-0.2794 0.0508,-0.60113 0.1524,-0.97366 0.245533,-0.85514 0.575733,-1.27847 1.007533,-1.27847 0.1524,0 0.262467,0.0593 0.440267,0.2286 z"
         style="font-style:normal;font-variant:normal;font-weight:normal;font-stretch:normal;font-size:8.46667px;line-height:1.25;font-family:'URW Chancery L';-inkscape-font-specification:'URW Chancery L';fill:#ffffff;fill-opacity:1;stroke:none;stroke-width:0.264583"
         id="path859" />
      <path
         d="m 80.407416,119.43479 c -0.635,0.55034 -1.0414,0.7874 -1.363134,0.7874 -0.211666,0 -0.389466,-0.14393 -0.448733,-0.36406 -0.03387,-0.13547 -0.04233,-0.2286 -0.04233,-0.47414 0.381001,-0.23706 0.635001,-0.41486 1.134534,-0.7874 0.4572,-0.34713 0.635001,-0.62653 0.635001,-1.00753 0,-0.29633 -0.186267,-0.47413 -0.482601,-0.47413 -0.186266,0 -0.321733,0.0423 -0.516467,0.1524 -0.321733,0.18626 -0.6096,0.41486 -0.7874,0.61806 -0.321733,0.38947 -0.6096,1.3208 -0.6096,2.0066 0,0.49954 0.262467,0.8128 0.694267,0.8128 0.499533,0 1.1176,-0.3556 1.786467,-1.02446 z m -1.828801,-0.3556 c 0.143934,-0.90593 0.533401,-1.60866 0.897468,-1.60866 0.143933,0 0.237066,0.14393 0.237066,0.34713 0,0.42333 -0.2286,0.67733 -1.134534,1.26153 z"
         style="font-style:normal;font-variant:normal;font-weight:normal;font-stretch:normal;font-size:8.46667px;line-height:1.25;font-family:'URW Chancery L';-inkscape-font-specification:'URW Chancery L';fill:#ffffff;fill-opacity:1;stroke:none;stroke-width:0.264583"
         id="path861" />
      <path
         d="m 83.428695,118.74053 c 0.03387,-0.18627 0.0762,-0.34714 0.110066,-0.4826 l 0.127,-0.47414 c 0.01693,-0.0762 0.03387,-0.13546 0.04233,-0.18626 0.1524,-0.0423 0.160867,-0.0423 0.4318,-0.47414 -0.694267,0.0169 -0.889,0.0169 -0.982134,0.0169 -0.516467,0.008 -0.6604,0.0339 -0.9144,0.18626 -0.4064,0.254 -0.694267,0.49107 -0.872067,0.71967 -0.254,0.3302 -0.5588,1.35467 -0.5588,1.87113 0,0.21167 0.0508,0.36407 0.186266,0.55034 l -0.973667,0.8382 c -0.423333,0.37253 -0.618067,0.65193 -0.618067,0.889 0,0.31326 0.372534,0.49106 1.016001,0.49106 0.778933,0 1.388534,-0.22013 1.955801,-0.7112 0.364066,-0.31326 0.448733,-0.49106 0.626533,-1.32926 z m -1.109134,2.31986 c -0.110067,0.508 -0.186267,0.70274 -0.338667,0.8636 -0.186267,0.21167 -0.5334,0.32174 -1.032934,0.32174 -0.550333,0 -0.846667,-0.1524 -0.846667,-0.42334 0,-0.34713 0.2286,-0.5588 2.582335,-2.3622 z m 0.9906,-3.47133 h 0.270934 c -0.04233,0.0339 -0.09313,0.0762 -0.135467,0.1016 -0.270933,0.19473 -0.3302,0.27093 -0.4064,0.47413 -0.0762,0.24554 -0.169334,0.57574 -0.2794,0.9906 -0.169334,0.11007 -0.372534,0.26247 -1.083734,0.79587 -0.1524,-0.1524 -0.211667,-0.28787 -0.211667,-0.49107 0,-0.28786 0.2032,-1.02446 0.381,-1.43086 0.169334,-0.34714 0.347134,-0.4318 0.965201,-0.4318 0.05927,0 0.160867,0 0.270933,-0.008 z"
         style="font-style:normal;font-variant:normal;font-weight:normal;font-stretch:normal;font-size:8.46667px;line-height:1.25;font-family:'URW Chancery L';-inkscape-font-specification:'URW Chancery L';fill:#ffffff;fill-opacity:1;stroke:none;stroke-width:0.264583"
         id="path863" />
      <path
         d="m 86.674736,119.43479 c -0.635,0.55034 -1.041401,0.7874 -1.363134,0.7874 -0.211667,0 -0.389467,-0.14393 -0.448733,-0.36406 -0.03387,-0.13547 -0.04233,-0.2286 -0.04233,-0.47414 0.381,-0.23706 0.635,-0.41486 1.134534,-0.7874 0.4572,-0.34713 0.635,-0.62653 0.635,-1.00753 0,-0.29633 -0.186267,-0.47413 -0.4826,-0.47413 -0.186267,0 -0.321733,0.0423 -0.516467,0.1524 -0.321733,0.18626 -0.6096,0.41486 -0.7874,0.61806 -0.321734,0.38947 -0.6096,1.3208 -0.6096,2.0066 0,0.49954 0.262466,0.8128 0.694267,0.8128 0.499533,0 1.1176,-0.3556 1.786467,-1.02446 z m -1.828801,-0.3556 c 0.143934,-0.90593 0.5334,-1.60866 0.897467,-1.60866 0.143934,0 0.237067,0.14393 0.237067,0.34713 0,0.42333 -0.2286,0.67733 -1.134534,1.26153 z"
         style="font-style:normal;font-variant:normal;font-weight:normal;font-stretch:normal;font-size:8.46667px;line-height:1.25;font-family:'URW Chancery L';-inkscape-font-specification:'URW Chancery L';fill:#ffffff;fill-opacity:1;stroke:none;stroke-width:0.264583"
         id="path865" />
      <path
         d="m 89.552082,119.43479 c -0.635,0.55034 -1.0414,0.7874 -1.363134,0.7874 -0.211667,0 -0.389467,-0.14393 -0.448733,-0.36406 -0.03387,-0.13547 -0.04233,-0.2286 -0.04233,-0.47414 0.381,-0.23706 0.635,-0.41486 1.134534,-0.7874 0.4572,-0.34713 0.635,-0.62653 0.635,-1.00753 0,-0.29633 -0.186267,-0.47413 -0.4826,-0.47413 -0.186267,0 -0.321733,0.0423 -0.516467,0.1524 -0.321733,0.18626 -0.6096,0.41486 -0.7874,0.61806 -0.321734,0.38947 -0.6096,1.3208 -0.6096,2.0066 0,0.49954 0.262466,0.8128 0.694267,0.8128 0.499533,0 1.1176,-0.3556 1.786467,-1.02446 z m -1.828801,-0.3556 c 0.143934,-0.90593 0.5334,-1.60866 0.897467,-1.60866 0.143934,0 0.237067,0.14393 0.237067,0.34713 0,0.42333 -0.2286,0.67733 -1.134534,1.26153 z"
         style="font-style:normal;font-variant:normal;font-weight:normal;font-stretch:normal;font-size:8.46667px;line-height:1.25;font-family:'URW Chancery L';-inkscape-font-specification:'URW Chancery L';fill:#ffffff;fill-opacity:1;stroke:none;stroke-width:0.264583"
         id="path867" />
      <path
         d="m 89.948692,120.68786 c 0.09313,-0.0339 0.1778,-0.0677 0.2032,-0.0762 0.0508,-0.0169 0.135467,-0.0423 0.2286,-0.0762 0.0254,-0.008 0.1016,-0.0339 0.186267,-0.0593 l 0.3302,-1.50706 0.194733,-0.11854 0.474134,1.10067 c 0.364067,0.8636 0.5842,1.21073 0.931333,1.48167 0.364067,0.2794 0.889001,0.4572 1.337734,0.4572 0.389467,0 0.668867,-0.0847 0.922867,-0.29634 l -0.169333,-0.6096 c -0.270934,0.4572 -0.516467,0.635 -0.872067,0.635 -0.364067,0 -0.728134,-0.28786 -1.016,-0.80433 -0.169334,-0.32173 -0.169334,-0.32173 -1.134534,-2.3622 l 0.567267,-0.51647 c 0.3302,-0.29633 0.4318,-0.3556 0.592667,-0.3556 0.143933,0 0.245533,0.0677 0.381,0.24554 l 0.4318,-0.64347 c -0.160867,-0.127 -0.287867,-0.16933 -0.474134,-0.16933 -0.220133,0 -0.372533,0.0762 -0.626533,0.31326 -0.270934,0.254 -0.2794,0.27094 -0.364067,0.34714 l -1.092201,0.97366 0.321734,-1.2954 c 0.270933,-1.1176 0.364067,-1.38853 0.508,-1.6256 0.1524,-0.24553 0.372534,-0.36407 0.6604,-0.36407 0.08467,0 0.143934,0.008 0.296334,0.0339 l 0.338667,-0.49107 c -0.110067,-0.0169 -0.169334,-0.0254 -0.245534,-0.0254 -0.3048,0 -0.508,0.0677 -0.770467,0.26247 -0.541867,0.381 -0.922867,0.75353 -1.032933,0.99907 -0.08467,0.18626 -0.245534,0.74507 -0.355601,1.23613 z"
         style="font-style:normal;font-variant:normal;font-weight:normal;font-stretch:normal;font-size:8.46667px;line-height:1.25;font-family:'URW Chancery L';-inkscape-font-specification:'URW Chancery L';fill:#ffffff;fill-opacity:1;stroke:none;stroke-width:0.264583"
         id="path869" />
    </g>
  </g>
</svg>
